<svg width="363" height="404" xmlns="http://www.w3.org/2000/svg" xmlns:xlink="http://www.w3.org/1999/xlink" xml:space="preserve" overflow="hidden"><defs><clipPath id="clip0"><rect x="4697" y="2662" width="363" height="404"/></clipPath><clipPath id="clip1"><rect x="4697" y="2662" width="363" height="404"/></clipPath></defs><g clip-path="url(#clip0)" transform="translate(-4697 -2662)"><g clip-path="url(#clip1)"><path d="M185.912 6.46178 185.912 6.46214 185.913 6.46214ZM132.759 9.74879C127.766 13.5212 123.431 18.3348 120.105 24.0953L6.4625 220.929C-3.51509 238.21-1.5688 259.104 9.74843 274.083L13.8052 277.66 17.9995 283.882C26.7179 292.6 38.7613 297.992 52.0645 297.992L279.349 297.992 281.077 297.643 285.343 297.941 293.965 295.042 298.101 294.207 299.745 293.098 303.475 291.844 309.54 286.494 313.414 283.883 314.753 281.896 317.821 279.19 321.08 272.512 323.738 268.57 324.255 266.004 325.92 262.592 326.435 255.208 327.524 249.818 327.524 249.818 326.994 247.194 327.205 244.169 325.148 238.053 323.738 231.066 321.865 228.288 321.108 226.036 207.465 29.202 203.038 24.183 200.258 19.1161 185.912 6.46214 167.78 0.364862C155.36-1.17651 142.745 2.20361 132.759 9.74879Z" fill="#1C89F3" fill-rule="evenodd" fill-opacity="1" transform="matrix(-0.866025 0.5 0.5 0.866025 4895.41 2635)"/><path d="M4841.46 2900.59 4892.47 2900.59C4897.29 2900.59 4901.2 2904.49 4901.2 2909.3 4901.2 2914.1 4897.29 2918 4892.47 2918L4841.46 2918C4836.64 2918 4832.73 2914.1 4832.73 2909.3 4832.73 2904.49 4836.64 2900.59 4841.46 2900.59ZM4788.6 2838.19C4776.48 2838.19 4766.65 2847.99 4766.65 2860.07 4766.65 2872.16 4776.48 2881.95 4788.6 2881.95 4800.73 2881.95 4810.55 2872.16 4810.55 2860.07 4810.55 2847.99 4800.73 2838.19 4788.6 2838.19ZM4788.52 2824.66C4808.14 2824.66 4824.05 2840.52 4824.05 2860.07 4824.05 2879.63 4808.14 2895.48 4788.52 2895.48 4768.9 2895.48 4753 2879.63 4753 2860.07 4753 2840.52 4768.9 2824.66 4788.52 2824.66ZM4918.74 2811.89C4921.85 2811.89 4924.95 2813.07 4927.33 2815.44L4958.57 2846.58 4959 2847.11 4959.54 2847.39C4960.21 2847.83 4960.85 2848.35 4961.44 2848.94 4966.19 2853.67 4966.19 2861.33 4961.44 2866.06L4930.2 2897.2C4925.46 2901.93 4917.77 2901.93 4913.03 2897.2 4908.28 2892.47 4908.28 2884.81 4913.03 2880.08L4918.07 2875.05 4827.27 2875.05 4828.06 2873.6C4829.86 2869.36 4830.85 2864.7 4830.85 2859.81 4830.85 2852.48 4828.61 2845.67 4824.78 2840.02L4823.5 2838.47 4916.08 2838.47 4910.15 2832.56C4905.41 2827.83 4905.41 2820.16 4910.15 2815.44 4912.52 2813.07 4915.63 2811.89 4918.74 2811.89ZM4842.03 2795 4893.04 2795C4897.87 2795 4901.77 2798.9 4901.77 2803.7 4901.77 2808.51 4897.87 2812.41 4893.04 2812.41L4842.03 2812.41C4837.21 2812.41 4833.3 2808.51 4833.3 2803.7 4833.3 2798.9 4837.21 2795 4842.03 2795Z" fill="#FFFFFF" fill-rule="evenodd" fill-opacity="1"/><path d="M172.502 59.0271C181.932 51.9022 193.844 48.7105 205.572 50.1661L222.694 55.9238 222.694 55.9234 222.695 55.9238 222.694 55.9238 236.242 67.8727 238.867 72.6576 243.047 77.3967 350.359 263.267 351.074 265.393 352.843 268.017 354.175 274.614 356.116 280.389 355.917 283.246 356.418 285.724 356.417 285.724 355.39 290.813 354.904 297.786 353.331 301.008 352.842 303.431 350.333 307.153 347.255 313.459 344.358 316.015 343.094 317.891 339.435 320.357 333.708 325.408 330.186 326.593 328.633 327.639 324.728 328.428 316.586 331.166 312.558 330.885 310.926 331.214 96.3026 331.214C83.7409 331.214 72.3683 326.122 64.1355 317.89L60.1745 312.015 56.3441 308.636C45.6573 294.492 43.8193 274.762 53.2408 258.444L160.553 72.5745C163.693 67.1351 167.788 62.5894 172.502 59.0271ZM226.469 7.87143 226.469 7.87187 226.469 7.87187ZM161.721 11.8755C155.638 16.4709 150.357 22.3345 146.306 29.3518L7.87187 269.125C-4.28192 290.176-1.91104 315.628 11.8751 333.874L16.8164 338.232 21.9261 345.812C32.5461 356.431 47.2171 363 63.422 363L340.289 363 342.395 362.575 347.59 362.938 358.093 359.406 363.131 358.388 365.134 357.038 369.678 355.51 377.066 348.994 381.785 345.812 383.417 343.392 387.154 340.095 391.124 331.961 394.361 327.159 394.992 324.033 397.02 319.877 397.647 310.882 398.973 304.316 398.973 304.316 398.328 301.12 398.585 297.434 396.08 289.985 394.362 281.474 392.08 278.09 391.158 275.346 252.724 35.5724 247.332 29.4586 243.945 23.2863 226.469 7.87187 204.381 0.444457C189.251-1.43317 173.885 2.68433 161.721 11.8755Z" fill="#FFFFFF" fill-rule="evenodd" fill-opacity="1" transform="matrix(-0.866025 0.5 0.5 0.866025 4902.07 2572.72)"/></g></g></svg>