<svg width="2113" height="1559" xmlns="http://www.w3.org/2000/svg" xmlns:xlink="http://www.w3.org/1999/xlink" xml:space="preserve" overflow="hidden"><g transform="translate(4290 -586)"><g><path d="M-2993.19 1496.99-3064.11 1567.66C-3165 1668.19-3328.31 1667.94-3428.88 1567.09L-3483.92 1511.9-3950.35 1976.7-3941.8 1977.56-2524.2 1977.56-2514.88 1976.62ZM-4109.11 884.976-4111.51 892.711C-4113.82 903.984-4115.03 915.656-4115.03 927.611L-4115.03 1804.39C-4115.03 1828.3-4110.18 1851.08-4101.42 1871.79L-4095.2 1883.25-3602.86 1392.63ZM-2362.12 868.134-2878.45 1382.66-2373.78 1888.73-2364.58 1871.79C-2355.82 1851.08-2350.97 1828.3-2350.97 1804.39L-2350.97 927.611C-2350.97 915.656-2352.18 903.984-2354.49 892.711ZM-3941.8 754.442C-3953.76 754.442-3965.43 755.653-3976.71 757.96L-3999.86 765.144-3373.29 1393.45C-3305.74 1461.19-3196.06 1461.36-3128.3 1393.84L-2507.12 774.838-2492.98 757.588-2524.2 754.442ZM-4025.57 592.5-2440.43 592.5C-2297.98 592.5-2182.5 707.938-2182.5 850.339L-2182.5 1881.66C-2182.5 2024.06-2297.98 2139.5-2440.43 2139.5L-4025.57 2139.5C-4168.02 2139.5-4283.5 2024.06-4283.5 1881.66L-4283.5 850.339C-4283.5 707.938-4168.02 592.5-4025.57 592.5Z" stroke="#042433" stroke-width="6.875" stroke-linecap="butt" stroke-linejoin="miter" stroke-miterlimit="8" stroke-opacity="1" fill="#000000" fill-rule="evenodd" fill-opacity="1"/></g></g></svg>