<svg width="257" height="279" xmlns="http://www.w3.org/2000/svg" xmlns:xlink="http://www.w3.org/1999/xlink" xml:space="preserve" overflow="hidden"><g transform="translate(-1067 -1228)"><g><path d="M1303.83 1307.24 1303.82 1496.44C1303.82 1501.12 1300.03 1504.91 1295.36 1504.91L1272.38 1504.91C1267.7 1504.91 1263.91 1501.12 1263.91 1496.45L1263.92 1356.38 1266.69 1353.73C1276.76 1343.41 1285.86 1332.68 1293.94 1321.71L1303.83 1307.24Z" fill="#6C3FBF" fill-rule="evenodd" fill-opacity="1"/><path d="M1257.3 1362.71 1257.3 1496.44C1257.3 1501.12 1253.51 1504.91 1248.83 1504.91L1225.85 1504.91C1221.18 1504.91 1217.39 1501.12 1217.39 1496.45L1217.39 1395.11 1233.66 1383.26C1239.63 1378.6 1245.37 1373.79 1250.88 1368.86L1257.3 1362.71Z" fill="#38BFD8" fill-rule="evenodd" fill-opacity="1"/><path d="M1208.96 1400.61 1208.96 1496.44C1208.96 1501.12 1205.17 1504.91 1200.49 1504.91L1177.51 1504.91C1172.84 1504.91 1169.05 1501.12 1169.05 1496.44L1169.05 1422.44 1178.23 1418.28C1184.51 1415.17 1190.77 1411.79 1197 1408.16L1208.96 1400.61Z" fill="#F7B500" fill-rule="evenodd" fill-opacity="1"/><path d="M1158.81 1427.04 1158.8 1496.44C1158.8 1501.12 1155.01 1504.91 1150.34 1504.91L1127.36 1504.91C1122.68 1504.91 1118.89 1501.12 1118.89 1496.44L1118.9 1439.83 1121.73 1439.25C1127.94 1437.71 1134.19 1435.9 1140.46 1433.84L1158.81 1427.04Z" fill="#E76F00" fill-rule="evenodd" fill-opacity="1"/><path d="M1110.47 1441.57 1110.46 1496.44C1110.46 1501.12 1106.67 1504.91 1102 1504.91L1079.02 1504.91C1074.34 1504.91 1070.55 1501.12 1070.55 1496.44L1070.56 1445.78 1085.24 1445.27C1091.17 1444.8 1097.19 1444.07 1103.28 1443.06L1110.47 1441.57Z" fill="#B31217" fill-rule="evenodd" fill-opacity="1"/><path d="M1320.41 1231.65 1314.95 1303.39 1298.02 1290.95 1296.36 1293.82C1278.73 1321.75 1254.56 1348.68 1224.72 1371.99 1176.97 1409.29 1123.75 1430.26 1076.31 1434.01L1069.45 1434.25 1069.45 1431.09 1078.23 1429.69C1120.57 1421.08 1165.76 1399.27 1206.31 1365.12 1234.82 1341.11 1257.71 1313.79 1274.24 1285.7L1279.05 1277.01 1253.56 1258.28Z" fill="#173B7A" fill-rule="evenodd" fill-opacity="1"/></g></g></svg>